<svg viewBox="0 0 157 44" fill="none" xmlns="http://www.w3.org/2000/svg">
<path d="M30.2643 18.9166H17.0601C16.7195 18.9166 16.443 19.1934 16.443 19.534V25.9898C16.443 26.3304 16.7195 26.6076 17.0601 26.6076H22.2111V34.6284C22.2111 34.6284 21.0545 35.0226 17.8568 35.0226C14.0843 35.0226 8.81422 33.6442 8.81422 22.0557C8.81422 10.4646 14.3019 8.93955 19.4538 8.93955C23.9135 8.93955 25.8347 9.72481 27.0571 10.103C27.4412 10.2208 27.7966 9.83835 27.7966 9.49741L29.2696 3.25983C29.2696 3.10049 29.2156 2.90843 29.0337 2.77788C28.5373 2.42386 25.5085 0.729004 17.8568 0.729004C9.04194 0.729004 0 4.47928 0 22.5075C0 40.5365 10.3523 43.223 19.0759 43.223C26.299 43.223 30.6808 40.1363 30.6808 40.1363C30.8614 40.0365 30.881 39.7842 30.881 39.6684V19.534C30.881 19.1934 30.6049 18.9166 30.2643 18.9166ZM98.2769 2.98565C98.2769 2.64209 98.0047 2.36496 97.6641 2.36496H90.2293C89.8897 2.36496 89.6136 2.64209 89.6136 2.98565C89.6136 2.98728 89.6155 17.3536 89.6155 17.3536H78.0267V2.98565C78.0267 2.64209 77.7532 2.36496 77.4132 2.36496H69.9788C69.6405 2.36496 69.3646 2.64209 69.3646 2.98565V41.8897C69.3646 42.2329 69.6405 42.5124 69.9788 42.5124H77.4132C77.7532 42.5124 78.0267 42.2329 78.0267 41.8897V25.2491H89.6155C89.6155 25.2491 89.5952 41.8884 89.5952 41.8897C89.5952 42.2329 89.8711 42.5124 90.211 42.5124H97.6635C98.0041 42.5124 98.2763 42.2329 98.2769 41.8897V2.98565ZM44.27 8.18701C44.27 5.50993 42.1236 3.34654 39.4757 3.34654C36.8303 3.34654 34.6823 5.50993 34.6823 8.18701C34.6823 10.8612 36.8303 13.0304 39.4757 13.0304C42.1236 13.0304 44.27 10.8612 44.27 8.18701ZM43.6801 33.7034V15.7451C43.6801 15.4042 43.4049 15.1254 43.065 15.1254H35.6538C35.3138 15.1254 35.0095 15.4762 35.0095 15.8171V41.5458C35.0095 42.302 35.4807 42.5268 36.0906 42.5268H42.7679C43.5005 42.5268 43.6801 42.1672 43.6801 41.5337V33.7034ZM126.692 15.1254H119.314C118.976 15.1254 118.701 15.4042 118.701 15.7474V34.8234C118.701 34.8234 116.826 36.1946 114.166 36.1946C111.506 36.1946 110.8 34.9876 110.8 32.3828V15.7474C110.8 15.4042 110.525 15.1254 110.186 15.1254H102.699C102.361 15.1254 102.084 15.4042 102.084 15.7474V33.6425C102.084 41.3793 106.396 43.2721 112.328 43.2721C117.194 43.2721 121.118 40.5836 121.118 40.5836C121.118 40.5836 121.305 42.0003 121.389 42.1685C121.474 42.336 121.694 42.5052 121.932 42.5052L126.696 42.4842C127.033 42.4842 127.31 42.2048 127.31 41.8632L127.308 15.7474C127.308 15.4042 127.032 15.1254 126.692 15.1254ZM143.691 36.2093C141.132 36.1315 139.396 34.9703 139.396 34.9703V22.6502C139.396 22.6502 141.109 21.6006 143.21 21.4128C145.866 21.1749 148.426 21.9775 148.426 28.3152C148.426 34.9984 147.271 36.3173 143.691 36.2093ZM146.601 14.2898C142.411 14.2898 139.56 16.1594 139.56 16.1594V2.98565C139.56 2.64209 139.286 2.36496 138.947 2.36496H131.491C131.152 2.36496 130.877 2.64209 130.877 2.98565V41.8897C130.877 42.2329 131.152 42.5124 131.492 42.5124H136.665C136.898 42.5124 137.074 42.3923 137.205 42.1819C137.333 41.9728 137.519 40.3882 137.519 40.3882C137.519 40.3882 140.567 43.2773 146.339 43.2773C153.114 43.2773 157 39.8405 157 27.8486C157 15.8567 150.794 14.2898 146.601 14.2898ZM65.0781 15.0587H59.5011C59.5011 15.0587 59.4926 7.69263 59.4926 7.69099C59.4926 7.41222 59.349 7.27284 59.0267 7.27284H51.4267C51.1312 7.27284 50.9725 7.40273 50.9725 7.68674V15.3005C50.9725 15.3005 47.164 16.2199 46.9065 16.2942C46.65 16.3684 46.4612 16.605 46.4612 16.887V21.6716C46.4612 22.0158 46.7361 22.2932 47.076 22.2932H50.9725V33.8032C50.9725 42.3524 56.9693 43.1923 61.016 43.1923C62.865 43.1923 65.0768 42.5984 65.4419 42.4636C65.6628 42.3825 65.7911 42.1538 65.7911 41.9058L65.7973 36.6425C65.7973 36.2993 65.5074 36.0215 65.1808 36.0215C64.8559 36.0215 64.0245 36.1537 63.1686 36.1537C60.4294 36.1537 59.5011 34.88 59.5011 33.2312C59.5011 31.5838 59.5008 22.2932 59.5008 22.2932H65.0781C65.4181 22.2932 65.6932 22.0158 65.6932 21.6716V15.6787C65.6932 15.3355 65.4181 15.0587 65.0781 15.0587Z"/>
</svg>
